<svg width="100" height="100" viewBox="0 0 100 100" xmlns="http://www.w3.org/2000/svg">
  <!-- Blood drop pattern -->
  <defs>
    <pattern id="blood-pattern" patternUnits="userSpaceOnUse" width="100" height="100">
      <!-- Blood drop 1 -->
      <path d="M20 40 Q20 20 30 10 Q40 20 40 40 Q40 50 30 60 Q20 50 20 40 Z" fill="#ffffff" opacity="0.3" />
      <!-- Blood drop 2 -->
      <path d="M70 70 Q70 50 80 40 Q90 50 90 70 Q90 80 80 90 Q70 80 70 70 Z" fill="#ffffff" opacity="0.3" />
      <!-- Blood drop 3 -->
      <path d="M60 20 Q60 10 65 5 Q70 10 70 20 Q70 25 65 30 Q60 25 60 20 Z" fill="#ffffff" opacity="0.3" />
      <!-- Blood drop 4 -->
      <path d="M10 80 Q10 70 15 65 Q20 70 20 80 Q20 85 15 90 Q10 85 10 80 Z" fill="#ffffff" opacity="0.3" />
    </pattern>
  </defs>
  
  <!-- Apply the pattern to a rectangle covering the entire SVG -->
  <rect width="100" height="100" fill="url(#blood-pattern)" />
</svg>